<?xml version="1.0" encoding="UTF-8" standalone="no"?>
<svg
   xmlns:dc="http://purl.org/dc/elements/1.1/"
   xmlns:cc="http://creativecommons.org/ns#"
   xmlns:rdf="http://www.w3.org/1999/02/22-rdf-syntax-ns#"
   xmlns:svg="http://www.w3.org/2000/svg"
   xmlns="http://www.w3.org/2000/svg"
   xmlns:sodipodi="http://sodipodi.sourceforge.net/DTD/sodipodi-0.dtd"
   xmlns:inkscape="http://www.inkscape.org/namespaces/inkscape"
   width="1140.1857mm"
   height="540.18561mm"
   viewBox="0 0 3232.0224 1531.2348"
   version="1.1"
   id="svg128"
   sodipodi:docname="nest current.svg"
   inkscape:version="0.92.0 r15299">
  <metadata
     id="metadata134">
    <rdf:RDF>
      <cc:Work
         rdf:about="">
        <dc:format>image/svg+xml</dc:format>
        <dc:type
           rdf:resource="http://purl.org/dc/dcmitype/StillImage" />
      </cc:Work>
    </rdf:RDF>
  </metadata>
  <defs
     id="defs132" />
  <sodipodi:namedview
     pagecolor="#ffffff"
     bordercolor="#666666"
     borderopacity="1"
     objecttolerance="10"
     gridtolerance="10"
     guidetolerance="10"
     inkscape:pageopacity="0"
     inkscape:pageshadow="2"
     inkscape:window-width="1920"
     inkscape:window-height="1001"
     id="namedview130"
     showgrid="false"
     inkscape:zoom="0.21719487"
     inkscape:cx="2908.9556"
     inkscape:cy="1008.0839"
     inkscape:window-x="-9"
     inkscape:window-y="-9"
     inkscape:window-maximized="1"
     inkscape:current-layer="layer1"
     inkscape:snap-midpoints="false"
     inkscape:snap-bbox="false" />
  <g
     inkscape:groupmode="layer"
     id="layer1"
     inkscape:label="Layer 1"
     transform="translate(-6.4167871,-218.42104)"
     style="display:inline">
    <g
       id="g4901"
       transform="translate(-1657.4977,411.32273)"
       style="fill:none;stroke:#ff0000;stroke-opacity:1;stroke-width:0.75;stroke-miterlimit:4;stroke-dasharray:none">
      <g
         transform="translate(-68.70939,222.77235)"
         id="g4759"
         style="fill:none;stroke:#ff0000;stroke-opacity:1;stroke-width:0.75;stroke-miterlimit:4;stroke-dasharray:none">
        <g
           transform="translate(110.49985,131.21857)"
           id="g4707"
           style="fill:none;stroke:#ff0000;stroke-opacity:1;stroke-width:0.75;stroke-miterlimit:4;stroke-dasharray:none">
          <polyline
             transform="rotate(180,2468.4738,166.05534)"
             style="fill:none;stroke:#ff0000;stroke-width:0.75;stroke-opacity:1;stroke-miterlimit:4;stroke-dasharray:none"
             id="line25"
             points="3160.28 -240.364 3160.28 -358.853 3272 -358.853 3272 -240.364 3272 2.01414e-14 3160.28 2.01414e-14 3160.28 -240.364" />
          <polyline
             transform="translate(-1843.8227,690.96368)"
             style="fill:none;stroke:#ff0000;stroke-width:0.75;stroke-opacity:1;stroke-miterlimit:4;stroke-dasharray:none"
             id="line28"
             points="3663.01 -240.364 3663.01 -358.853 3774.73 -358.853 3774.73 -240.364 3774.73 2.01414e-14 3663.01 2.01414e-14 3663.01 -240.364" />
          <polyline
             transform="translate(-1019.273,690.96368)"
             style="fill:none;stroke:#ff0000;stroke-width:0.75;stroke-opacity:1;stroke-miterlimit:4;stroke-dasharray:none"
             id="line24"
             points="2992.7 -240.364 2992.7 -358.853 3104.42 -358.853 3104.42 -240.364 3104.42 2.01414e-14 2992.7 2.01414e-14 2992.7 -240.364" />
          <polyline
             transform="translate(-1702.9233,690.96368)"
             style="fill:none;stroke:#ff0000;stroke-width:0.75;stroke-opacity:1;stroke-miterlimit:4;stroke-dasharray:none"
             id="line29"
             points="3830.59 -240.364 3830.59 -358.853 3942.31 -358.853 3942.31 -240.364 3942.31 2.01414e-14 3830.59 2.01414e-14 3830.59 -240.364" />
          <polyline
             transform="rotate(180,2860.738,166.05534)"
             style="fill:none;stroke:#ff0000;stroke-width:0.75;stroke-opacity:1;stroke-miterlimit:4;stroke-dasharray:none"
             id="line26"
             points="3327.86 -240.364 3327.86 -358.853 3439.57 -358.853 3439.57 -240.364 3439.57 2.01414e-14 3327.86 2.01414e-14 3327.86 -240.364" />
          <polyline
             transform="rotate(180,3021.6428,166.05534)"
             style="fill:none;stroke:#ff0000;stroke-width:0.75;stroke-opacity:1;stroke-miterlimit:4;stroke-dasharray:none"
             id="line27"
             points="3495.43 -240.364 3495.43 -358.853 3607.15 -358.853 3607.15 -240.364 3607.15 2.01414e-14 3495.43 2.01414e-14 3495.43 -240.364" />
          <polyline
             transform="rotate(-90,2414.6782,-10.494963)"
             style="fill:none;stroke:#ff0000;stroke-width:0.75;stroke-opacity:1;stroke-miterlimit:4;stroke-dasharray:none"
             id="line16"
             points="1628.38 -240.364 1628.38 -358.853 1670.7 -358.853 1670.7 -240.364 1670.7 2.01414e-14 1628.38 2.01414e-14 1628.38 -240.364" />
          <polyline
             transform="rotate(90,1488.1236,578.19658)"
             style="fill:none;stroke:#ff0000;stroke-width:0.75;stroke-opacity:1;stroke-miterlimit:4;stroke-dasharray:none"
             id="line17"
             points="1728.25 -240.364 1728.25 -358.853 1770.57 -358.853 1770.57 -240.364 1770.57 2.01414e-14 1728.25 2.01414e-14 1728.25 -240.364" />
          <polyline
             transform="rotate(-90,2362.9469,339.14638)"
             style="fill:none;stroke:#ff0000;stroke-width:0.75;stroke-opacity:1;stroke-miterlimit:4;stroke-dasharray:none"
             id="line19"
             points="1926.3 -240.364 1926.3 -358.853 1968.61 -358.853 1968.61 -240.364 1968.61 2.01414e-14 1926.3 2.01414e-14 1926.3 -240.364" />
          <polyline
             transform="rotate(-90,2157.3867,133.58622)"
             style="fill:none;stroke:#ff0000;stroke-width:0.75;stroke-opacity:1;stroke-miterlimit:4;stroke-dasharray:none"
             id="line14"
             points="1430.33 -240.364 1430.33 -358.853 1472.65 -358.853 1472.65 -240.364 1472.65 -20.3125 1472.65 2.01414e-14 1430.33 2.01414e-14 1430.33 -25.3906 1430.33 -240.364" />
          <g
             transform="matrix(0,1,1,0,3130.3483,-998.35932)"
             id="g97"
             style="fill:none;stroke:#ff0000;stroke-opacity:1;stroke-width:0.75;stroke-miterlimit:4;stroke-dasharray:none">
            <polyline
               points="1330.47 -240.364 1330.47 -539.973 1374.48 -539.973 1374.48 -240.364 1374.48 -30.4687 1374.48 2.01414e-14 1330.47 2.01414e-14 1330.47 -35.5468 1330.47 -240.364"
               id="line13"
               style="fill:none;stroke:#ff0000;stroke-width:0.75;stroke-opacity:1;stroke-miterlimit:4;stroke-dasharray:none" />
          </g>
          <g
             transform="matrix(0,1,1,0,3130.3483,-615.59963)"
             id="g100"
             style="fill:none;stroke:#ff0000;stroke-opacity:1;stroke-width:0.75;stroke-miterlimit:4;stroke-dasharray:none">
            <polyline
               points="1034.24 -240.364 1034.24 -539.973 1076.56 -539.973 1076.56 -240.364 1076.56 -62.6301 1076.56 2.01414e-14 1034.24 2.01414e-14 1034.24 -66.0155 1034.24 -240.364"
               id="line10"
               style="fill:none;stroke:#ff0000;stroke-width:0.75;stroke-opacity:1;stroke-miterlimit:4;stroke-dasharray:none" />
          </g>
          <g
             transform="matrix(0,1,1,0,3130.3483,-728.80994)"
             id="g103"
             style="fill:none;stroke:#ff0000;stroke-opacity:1;stroke-width:0.75;stroke-miterlimit:4;stroke-dasharray:none">
            <polyline
               points="1232.29 -240.364 1232.29 -539.973 1274.61 -539.973 1274.61 -240.364 1274.61 -40.6249 1274.61 2.01414e-14 1232.29 2.01414e-14 1232.29 -45.703 1232.29 -240.364"
               id="line12"
               style="fill:none;stroke:#ff0000;stroke-width:0.75;stroke-opacity:1;stroke-miterlimit:4;stroke-dasharray:none" />
          </g>
          <g
             transform="matrix(0,-1,-1,0,2590.3753,1763.0598)"
             id="g106"
             style="fill:none;stroke:#ff0000;stroke-opacity:1;stroke-width:0.75;stroke-miterlimit:4;stroke-dasharray:none">
            <polyline
               points="1132.42 -240.364 1132.42 -539.973 1174.74 -539.973 1174.74 -240.364 1174.74 -50.7811 1174.74 2.01414e-14 1132.42 2.01414e-14 1132.42 -55.8592 1132.42 -240.364"
               id="line11"
               style="fill:none;stroke:#ff0000;stroke-width:0.75;stroke-opacity:1;stroke-miterlimit:4;stroke-dasharray:none" />
          </g>
          <g
             transform="matrix(0,1,1,0,2949.2283,-1154.9605)"
             id="g109"
             style="fill:none;stroke:#ff0000;stroke-opacity:1;stroke-width:0.75;stroke-miterlimit:4;stroke-dasharray:none">
            <polyline
               points="1828.12 -240.364 1828.12 -358.853 1870.44 -358.853 1870.44 -240.364 1870.44 2.01414e-14 1828.12 2.01414e-14 1828.12 -240.364"
               id="line18"
               style="fill:none;stroke:#ff0000;stroke-width:0.75;stroke-opacity:1;stroke-miterlimit:4;stroke-dasharray:none" />
          </g>
          <g
             transform="matrix(0,1,1,0,2647.1199,-1405.8871)"
             id="g124"
             style="fill:none;stroke:#ff0000;stroke-opacity:1;stroke-width:0.75;stroke-miterlimit:4;stroke-dasharray:none">
            <polyline
               points="2224.21 2.01414e-14 2224.21 -179.427 2266.53 -179.427 2266.53 2.01414e-14 2224.21 2.01414e-14"
               id="line37"
               style="fill:none;stroke:#ff0000;stroke-width:0.75;stroke-opacity:1;stroke-miterlimit:4;stroke-dasharray:none" />
          </g>
          <rect
             y="218.72482"
             x="1622.4279"
             height="765.3136"
             width="1615.7073"
             id="rect5075"
             style="fill:none;fill-opacity:1;stroke:#ff0000;stroke-width:0.75;stroke-miterlimit:4;stroke-dasharray:none;stroke-opacity:1" />
          <rect
             y="261.24454"
             x="1664.9475"
             height="28.346457"
             width="1261.4174"
             id="rect5111"
             style="fill:none;fill-opacity:1;stroke:#ff0000;stroke-width:0.75;stroke-miterlimit:4;stroke-dasharray:none;stroke-opacity:1" />
        </g>
      </g>
      <g
         style="fill:none;stroke:#ff0000;stroke-opacity:1;stroke-width:0.75;stroke-miterlimit:4;stroke-dasharray:none"
         transform="translate(3257.163,-1014.5046)"
         id="g4172">
        <g
           style="fill:none;stroke:#ff0000;stroke-opacity:1;stroke-width:0.75;stroke-miterlimit:4;stroke-dasharray:none"
           id="g3"
           transform="rotate(-90,3555.4738,2225.152)">
          <polyline
             style="fill:none;stroke:#ff0000;stroke-width:0.75;stroke-opacity:1;stroke-miterlimit:4;stroke-dasharray:none"
             id="line33"
             points="4798.82 -240.364 4798.82 -1259.37 4910.53 -1259.37 4910.53 -240.364 4910.53 2.01414e-14 4798.82 2.01414e-14 4798.82 -240.364" />
        </g>
        <g
           style="fill:none;stroke:#ff0000;stroke-opacity:1;stroke-width:0.75;stroke-miterlimit:4;stroke-dasharray:none"
           id="g12"
           transform="rotate(90,1612.7098,-1541.758)">
          <polyline
             style="fill:none;stroke:#ff0000;stroke-width:0.75;stroke-opacity:1;stroke-miterlimit:4;stroke-dasharray:none"
             id="line30"
             points="4500.9 -240.364 4500.9 -1259.37 4543.22 -1259.37 4543.22 -240.364 4543.22 2.01414e-14 4500.9 2.01414e-14 4500.9 -240.364" />
        </g>
        <g
           style="fill:none;stroke:#ff0000;stroke-opacity:1;stroke-width:0.75;stroke-miterlimit:4;stroke-dasharray:none"
           id="g15"
           transform="rotate(90,1666.4804,-1595.5286)">
          <polyline
             style="fill:none;stroke:#ff0000;stroke-width:0.75;stroke-opacity:1;stroke-miterlimit:4;stroke-dasharray:none"
             id="line32"
             points="4698.95 -240.364 4698.95 -1259.37 4742.96 -1259.37 4742.96 -240.364 4742.96 2.01414e-14 4698.95 2.01414e-14 4698.95 -240.364" />
        </g>
        <g
           style="fill:none;stroke:#ff0000;stroke-opacity:1;stroke-width:0.75;stroke-miterlimit:4;stroke-dasharray:none"
           id="g6"
           transform="rotate(90,603.4091,-532.45731)">
          <polyline
             style="fill:none;stroke:#ff0000;stroke-width:0.75;stroke-opacity:1;stroke-miterlimit:4;stroke-dasharray:none"
             id="line20"
             points="2324.08 -240.364 2324.08 -898.826 2434.11 -898.826 2434.11 -240.364 2434.11 2.01414e-14 2324.08 2.01414e-14 2324.08 -240.364" />
        </g>
        <g
           style="fill:none;stroke:#ff0000;stroke-opacity:1;stroke-width:0.75;stroke-miterlimit:4;stroke-dasharray:none"
           id="g18"
           transform="rotate(-90,2838.6669,1286.3965)">
          <polyline
             style="fill:none;stroke:#ff0000;stroke-width:0.75;stroke-opacity:1;stroke-miterlimit:4;stroke-dasharray:none"
             id="line23"
             points="2826.82 -240.364 2826.82 -539.973 2936.84 -539.973 2936.84 -240.364 2936.84 2.01414e-14 2826.82 2.01414e-14 2826.82 -240.364" />
        </g>
        <g
           style="fill:none;stroke:#ff0000;stroke-opacity:1;stroke-width:0.75;stroke-miterlimit:4;stroke-dasharray:none"
           id="g21"
           transform="rotate(-90,3492.5068,1931.5367)">
          <polyline
             style="fill:none;stroke:#ff0000;stroke-width:0.75;stroke-opacity:1;stroke-miterlimit:4;stroke-dasharray:none"
             id="line40"
             points="4333.32 2.01414e-14 4333.32 -179.427 4445.04 -179.427 4445.04 2.01414e-14 4333.32 2.01414e-14"
             transform="translate(108.9077,-8.7016144)" />
        </g>
        <g
           style="fill:none;stroke:#ff0000;stroke-opacity:1;stroke-width:0.75;stroke-miterlimit:4;stroke-dasharray:none"
           id="g9"
           transform="rotate(-90,3718.3682,2388.0464)">
          <polyline
             style="fill:none;stroke:#ff0000;stroke-width:0.75;stroke-opacity:1;stroke-miterlimit:4;stroke-dasharray:none"
             id="line34"
             points="4966.39 -240.364 4966.39 -1259.37 5076.42 -1259.37 5076.42 -240.364 5076.42 2.01414e-14 4966.39 2.01414e-14 4966.39 -240.364" />
        </g>
        <g
           style="fill:none;stroke:#ff0000;stroke-opacity:1;stroke-width:0.75;stroke-miterlimit:4;stroke-dasharray:none"
           id="g24"
           transform="rotate(90,2255.1384,-882.29696)">
          <polyline
             style="fill:none;stroke:#ff0000;stroke-width:0.75;stroke-opacity:1;stroke-miterlimit:4;stroke-dasharray:none"
             id="line39"
             points="4165.75 2.01414e-14 4165.75 -179.427 4277.46 -179.427 4277.46 2.01414e-14 4165.75 2.01414e-14" />
        </g>
        <g
           style="fill:none;stroke:#ff0000;stroke-opacity:1;stroke-width:0.75;stroke-miterlimit:4;stroke-dasharray:none"
           id="g27"
           transform="rotate(-90,2532.6803,980.41186)">
          <polyline
             style="fill:none;stroke:#ff0000;stroke-width:0.75;stroke-opacity:1;stroke-miterlimit:4;stroke-dasharray:none"
             id="line36"
             points="2124.34 2.01414e-14 2124.34 -179.427 2166.66 -179.427 2166.66 2.01414e-14 2124.34 2.01414e-14" />
        </g>
        <g
           style="fill:none;stroke:#ff0000;stroke-opacity:1;stroke-width:0.75;stroke-miterlimit:4;stroke-dasharray:none"
           id="g30"
           transform="rotate(90,976.71716,408.03473)">
          <polyline
             transform="translate(-20.54626,11.910414)"
             style="fill:none;stroke:#ff0000;stroke-width:0.75;stroke-opacity:1;stroke-miterlimit:4;stroke-dasharray:none"
             id="line35"
             points="2026.17 2.01414e-14 2026.17 -179.427 2068.48 -179.427 2068.48 2.01414e-14 2026.17 2.01414e-14" />
        </g>
        <rect
           style="fill:none;fill-opacity:1;stroke:#ff0000;stroke-width:0.75;stroke-miterlimit:4;stroke-dasharray:none;stroke-opacity:1"
           id="rect5192"
           width="1615.7073"
           height="765.3136"
           x="22.76273"
           y="821.90674" />
      </g>
      <g
         transform="translate(1657.4979,-411.32271)"
         id="g4733"
         style="fill:none;stroke:#ff0000;stroke-opacity:1;stroke-width:0.75;stroke-miterlimit:4;stroke-dasharray:none">
        <g
           style="fill:none;stroke:#ff0000;stroke-opacity:1;stroke-width:0.75;stroke-miterlimit:4;stroke-dasharray:none"
           id="g35"
           transform="rotate(-90,3006.2974,621.95074)">
          <polyline
             style="fill:none;stroke:#ff0000;stroke-width:0.75;stroke-opacity:1;stroke-miterlimit:4;stroke-dasharray:none"
             id="line21"
             points="2491.66 -240.364 2491.66 -719.399 2601.69 -719.399 2601.69 -240.364 2601.69 2.01414e-14 2491.66 2.01414e-14 2491.66 -240.364" />
        </g>
        <g
           style="fill:none;stroke:#ff0000;stroke-opacity:1;stroke-width:0.75;stroke-miterlimit:4;stroke-dasharray:none"
           id="g44"
           transform="rotate(-90,3381.3288,414.48934)">
          <polyline
             style="fill:none;stroke:#ff0000;stroke-width:0.75;stroke-opacity:1;stroke-miterlimit:4;stroke-dasharray:none"
             id="line22"
             points="2659.24 -240.364 2659.24 -539.973 2769.26 -539.973 2769.26 -240.364 2769.26 2.01414e-14 2659.24 2.01414e-14 2659.24 -240.364" />
        </g>
        <g
           style="fill:none;stroke:#ff0000;stroke-opacity:1;stroke-width:0.75;stroke-miterlimit:4;stroke-dasharray:none"
           id="g56"
           transform="rotate(90,398.98786,1265.9597)">
          <polyline
             style="fill:none;stroke:#ff0000;stroke-width:0.75;stroke-opacity:1;stroke-miterlimit:4;stroke-dasharray:none"
             id="line7"
             points="736.326 -240.364 736.326 -719.399 778.644 -719.399 778.644 -240.364 778.644 -93.0987 778.644 2.01414e-14 736.326 2.01414e-14 736.326 -98.1768 736.326 -240.364" />
        </g>
        <g
           style="fill:none;stroke:#ff0000;stroke-opacity:1;stroke-width:0.75;stroke-miterlimit:4;stroke-dasharray:none"
           id="g65"
           transform="rotate(90,829.8817,1596.9845)">
          <polyline
             style="fill:none;stroke:#ff0000;stroke-width:0.75;stroke-opacity:1;stroke-miterlimit:4;stroke-dasharray:none"
             id="line8"
             points="834.503 -240.364 834.503 -539.973 878.513 -539.973 878.513 -240.364 878.513 -82.9425 878.513 2.01414e-14 834.503 2.01414e-14 834.503 -88.0206 834.503 -240.364" />
        </g>
        <g
           style="fill:none;stroke:#ff0000;stroke-opacity:1;stroke-width:0.75;stroke-miterlimit:4;stroke-dasharray:none"
           id="g47"
           transform="rotate(90,512.05992,1152.8877)">
          <polyline
             style="fill:none;stroke:#ff0000;stroke-width:0.75;stroke-opacity:1;stroke-miterlimit:4;stroke-dasharray:none"
             id="line5"
             points="538.28 -240.364 538.28 -719.399 580.598 -719.399 580.598 -240.364 580.598 -225.13 580.598 -113.411 580.598 2.01414e-14 538.28 2.01414e-14 538.28 -13.5416 538.28 -118.489 538.28 -220.052 538.28 -240.364" />
        </g>
        <g
           style="fill:none;stroke:#ff0000;stroke-opacity:1;stroke-width:0.75;stroke-miterlimit:4;stroke-dasharray:none"
           id="g50"
           transform="rotate(-90,2055.2005,-508.57308)">
          <polyline
             style="fill:none;stroke:#ff0000;stroke-width:0.75;stroke-opacity:1;stroke-miterlimit:4;stroke-dasharray:none"
             id="line2"
             points="240.364 -240.364 240.364 -898.826 282.682 -898.826 282.682 -240.364 282.682 -192.968 282.682 -145.573 282.682 -96.4841 282.682 -42.3176 282.682 2.01414e-14 255.598 2.01414e-14 240.364 2.01414e-14 240.364 -13.5416 240.364 -67.7082 240.364 -110.026 240.364 -150.651 240.364 -187.89 240.364 -230.208 240.364 -240.364" />
        </g>
        <g
           style="fill:none;stroke:#ff0000;stroke-opacity:1;stroke-width:0.75;stroke-miterlimit:4;stroke-dasharray:none"
           id="g53"
           transform="rotate(90,377.28726,1287.6603)">
          <polyline
             style="fill:none;stroke:#ff0000;stroke-width:0.75;stroke-opacity:1;stroke-miterlimit:4;stroke-dasharray:none"
             id="line4"
             points="438.41 -240.364 438.41 -719.399 480.728 -719.399 480.728 -240.364 480.728 -213.281 480.728 -125.26 480.728 -32.1614 480.728 2.01414e-14 438.41 2.01414e-14 438.41 -45.703 438.41 -128.646 438.41 -209.895 438.41 -240.364" />
        </g>
        <g
           style="fill:none;stroke:#ff0000;stroke-opacity:1;stroke-width:0.75;stroke-miterlimit:4;stroke-dasharray:none"
           id="g59"
           transform="rotate(-90,2353.1106,-793.15482)">
          <polyline
             style="fill:none;stroke:#ff0000;stroke-width:0.75;stroke-opacity:1;stroke-miterlimit:4;stroke-dasharray:none"
             id="line3"
             points="338.541 -240.364 338.541 -719.399 380.858 -719.399 380.858 -240.364 380.858 -203.124 380.858 -135.416 380.858 -64.3228 380.858 2.01414e-14 357.161 2.01414e-14 338.541 2.01414e-14 338.541 -10.1562 338.541 -77.8644 338.541 -138.802 338.541 -199.739 338.541 -240.364" />
        </g>
        <polyline
           points="636.457 -240.364 636.457 -719.399 678.774 -719.399 678.774 -240.364 678.774 -235.286 678.774 -103.255 678.774 2.01414e-14 636.457 2.01414e-14 636.457 -108.333 636.457 -230.208 636.457 -240.364"
           id="line6"
           style="fill:none;stroke:#ff0000;stroke-width:0.75;stroke-opacity:1;stroke-miterlimit:4;stroke-dasharray:none"
           transform="rotate(90,857.27614,1569.5902)" />
        <g
           style="fill:none;stroke:#ff0000;stroke-opacity:1;stroke-width:0.75;stroke-miterlimit:4;stroke-dasharray:none"
           id="g68"
           transform="rotate(-90,2693.4449,-452.82048)">
          <polyline
             style="fill:none;stroke:#ff0000;stroke-width:0.75;stroke-opacity:1;stroke-miterlimit:4;stroke-dasharray:none"
             id="line9"
             points="934.373 -240.364 934.373 -539.973 976.69 -539.973 976.69 -240.364 976.69 -72.7863 976.69 2.01414e-14 934.373 2.01414e-14 934.373 -76.1717 934.373 -240.364" />
        </g>
        <g
           style="fill:none;stroke:#ff0000;stroke-opacity:1;stroke-width:0.75;stroke-miterlimit:4;stroke-dasharray:none"
           id="g71"
           transform="rotate(90,2990.4856,18.873647)">
          <polyline
             style="fill:none;stroke:#ff0000;stroke-width:0.75;stroke-opacity:1;stroke-miterlimit:4;stroke-dasharray:none"
             id="line38"
             points="3998.17 2.01414e-14 3998.17 -179.427 4109.89 -179.427 4109.89 2.01414e-14 3998.17 2.01414e-14" />
        </g>
        <g
           style="fill:none;stroke:#ff0000;stroke-opacity:1;stroke-width:0.75;stroke-miterlimit:4;stroke-dasharray:none"
           id="g38"
           transform="rotate(-90,4500.5141,1576.1965)">
          <polyline
             style="fill:none;stroke:#ff0000;stroke-width:0.75;stroke-opacity:1;stroke-miterlimit:4;stroke-dasharray:none"
             id="line31"
             points="4600.77 -240.364 4600.77 -1259.37 4643.09 -1259.37 4643.09 -240.364 4643.09 2.01414e-14 4600.77 2.01414e-14 4600.77 -240.364" />
        </g>
        <g
           style="fill:none;stroke:#ff0000;stroke-opacity:1;stroke-width:0.75;stroke-miterlimit:4;stroke-dasharray:none"
           id="g41"
           transform="rotate(90,143.49066,1521.4569)">
          <polyline
             style="fill:none;stroke:#ff0000;stroke-width:0.75;stroke-opacity:1;stroke-miterlimit:4;stroke-dasharray:none"
             id="line1"
             points="140.494 -240.364 140.494 -898.826 182.812 -898.826 182.812 -240.364 182.812 -211.588 182.812 -182.812 182.812 -155.729 182.812 -128.646 182.812 -99.8695 182.812 -64.3228 182.812 -13.5416 182.812 2.01414e-14 150.651 2.01414e-14 140.494 2.01414e-14 140.494 -20.3125 140.494 -72.7863 140.494 -101.562 140.494 -125.26 140.494 -142.187 140.494 -160.807 140.494 -177.734 140.494 -198.046 140.494 -221.744 140.494 -240.364" />
        </g>
        <g
           style="fill:none;stroke:#ff0000;stroke-opacity:1;stroke-width:0.75;stroke-miterlimit:4;stroke-dasharray:none"
           id="g74"
           transform="rotate(90,1309.0165,1297.2767)">
          <polyline
             style="fill:none;stroke:#ff0000;stroke-width:0.75;stroke-opacity:1;stroke-miterlimit:4;stroke-dasharray:none"
             id="line15"
             points="1530.2 -240.364 1530.2 -358.853 1572.52 -358.853 1572.52 -240.364 1572.52 -10.1562 1572.52 2.01414e-14 1530.2 2.01414e-14 1530.2 -13.5416 1530.2 -240.364" />
        </g>
        <rect
           style="fill:none;fill-opacity:1;stroke:#ff0000;stroke-width:0.75;stroke-miterlimit:4;stroke-dasharray:none;stroke-opacity:1"
           id="rect4667"
           width="1615.7075"
           height="764.74689"
           x="1622.4279"
           y="984.03845" />
        <g
           style="fill:none;stroke:#ff0000;stroke-opacity:1;stroke-width:0.93749999;stroke-miterlimit:4;stroke-dasharray:none"
           id="layer1-7"
           inkscape:label=" Slice 1"
           transform="matrix(0,-0.80000001,0.80000001,0,3284.8483,1558.7925)">
          <g
             style="fill:none;stroke:#ff0000;stroke-opacity:1;stroke-width:0.93749999;stroke-miterlimit:4;stroke-dasharray:none"
             id="g371"
             transform="rotate(90,93.113051,-242.68187)">
            <polyline
               id="line0"
               points="0.0,-301.18109499999997 8.43307066,-301.18109499999997 35.539369210000004,-301.18109499999997 42.466534395,-301.18109499999997 42.466534395,-213.23621526 42.466534395,-199.98424708000002 44.273620965000006,-200.58660927000003 49.99606177,-205.706687885 56.320864764999996,-209.32086102500003 63.24802994999999,-211.730309785 70.77755732499999,-212.332671975 78.00590360499999,-211.730309785 85.234249885,-209.32086102500003 91.55905287999998,-205.706687885 96.98031259,-200.58660927000003 101.49802901499999,-194.864168465 104.50983996499998,-187.93700328000003 106.01574543999998,-180.70865700000002 106.01574543999998,-177.09448386000003 106.01574543999998,-173.17912962500003 104.50983996499998,-165.95078334500002 101.49802901499999,-159.32479925500002 96.98031259,-153.30117735500002 91.55905287999998,-148.48227983500004 85.234249885,-144.56692560000002 78.00590360499999,-142.45865793500002 70.77755732499999,-141.55511465 70.77755732499999,0.30118109499999673 42.466534395,0.30118109499999673 0.0,0.30118109499999673 0.0,-149.08464202500002 0.0,-162.93897239500004 0.0,-177.09448386000003 0.0,-193.35826299000001 0.0,-214.74212073500004 0.0,-249.67912775500002 0.0,-301.18109499999997 "
               style="fill:none;stroke:#ff0000;stroke-width:0.93749999;stroke-opacity:1;stroke-miterlimit:4;stroke-dasharray:none" />
          </g>
        </g>
      </g>
      <path
         inkscape:connector-curvature="0"
         id="line0-2-7"
         d="m 1954.4937,315.54588 h -11.2572 -3.7524 l -7.5048,-0.52813 -6.9687,-0.52812 h -5.3606 l -1.6081,-0.52813 h -6.4327 l -6.4327,-0.52813 -4.8245,-0.52813 -6.4326,-0.52812 -8.0409,-0.52813 -4.2884,-1.05625 -5.3606,-0.52813 -7.5048,-0.52813 -4.2884,-0.52813 -4.2884,-0.52812 -6.9688,-1.05626 h -1.6081 l -8.5769,-1.58438 -5.3606,-1.05625 -5.3605,-0.52813 -6.9688,-1.05625 -1.6081,-0.52813 -5.3606,-1.05626 -6.9687,-1.58438 -6.4327,-2.11251 -4.2884,-1.05625 -2.1443,-1.05626 -2.6802,-1.05625 -5.3606,-2.11251 -6.9687,-3.69689 -4.2885,-1.58438 -4.2884,-2.11251 -5.8966,-3.16876 -6.4327,-3.69689 -3.2163,-2.11251 -2.6803,-2.11251 -1.6082,-1.58438 -4.2884,-4.22502 -5.8966,-6.86565 -4.2885,-5.28127 -3.2163,-3.69689 -3.2163,-4.22502 -3.7524,-4.75315 -2.6803,-3.69688 -3.2163,-4.22502 -3.7524,-6.86566 -2.6803,-4.75314 -2.1442,-4.22502 -2.6803,-5.80939 -2.1442,-5.80941 -1.6082,-5.8094 -2.1442,-5.80939 -1.6082,-7.39378 -1.0721,-5.8094 -1.6082,-6.33753 -1.6081,-7.39378 -1.0721,-7.92191 -1.6082,-7.39378 -1.0721,-10.03442 -1.0721,-6.33752 -0.5361,-4.75315 -0.536,-3.16876 -0.5361,-7.9219 -1.0721,-8.45004 -0.5361,-8.97816 -0.536,-8.97816 -0.5361,-8.978166 v -9.506291 -4.753139 -9.506291 l 0.5361,-10.034417 0.536,-7.921907 0.5361,-7.393781 0.536,-3.696887 0.5361,-5.281279 1.0721,-10.562543 0.5361,-6.865648 0.536,-2.6406355 0.5361,-5.2812713 1.0721,-7.3937813 1.0721,-7.9219069 1.0721,-6.33753 1.6082,-8.450033 1.6081,-7.393781 1.6082,-7.393781 2.1442,-8.450033 2.6803,-6.865656 2.1442,-6.337522 2.6803,-6.865656 4.2885,-7.393781 3.2163,-5.809397 3.2163,-5.281272 4.2885,-6.33753 1.6081,-1.584377 1.0722,-1.584384 1.6081,-1.584377 4.2885,-4.753146 5.3605,-6.33753 4.8245,-5.28127 4.8245,-3.69689 4.8245,-3.69689 12.3293,-8.45003 12.8653,-7.39379 9.649,-4.75314 7.5048,-3.69689 5.3606,-1.58438 6.4327,-1.58438 1.6081,-0.52813 2.6803,-0.52813 2.6803,-0.52812 2.6803,-0.52813 2.1442,-0.52813 5.3605,-1.05625 5.8966,-1.05626 4.2885,-0.52812 4.2884,-0.52813 4.8245,-1.05626 7.5048,-1.05625 3.7524,-0.52813 h 2.1442 l 2.6803,-0.52813 h 2.6803 l 2.6803,-0.52812 5.8966,-0.52813 4.2884,-0.52812 1.6082,-0.52814 h 5.3605 l 6.4327,-1.05625 6.4327,-0.52812 5.3605,-0.52813 7.5048,-0.52813 h 3.7524 l 3.2163,-0.52813 h 4.2885 4.8245 l 1.6082,-0.52812 h 2.1442 2.1442 3.2163 2.1443 l 3.7524,-0.52813 h 2.1442 3.7524 5.3605 1.6082 3.2163 5.8966 6.9688 3.7524 l 2.6802,0.52813 4.8245,0.52812 6.4327,0.52813 1.6082,0.52813 3.2163,0.52813 5.3606,1.58437 4.8245,1.58439 5.3605,2.11251 4.2885,2.64063 4.2884,3.16877 4.2885,4.22502 3.7523,3.69688 3.2164,4.75315 1.6081,3.16876 2.1443,3.16876 1.6081,4.75315 0.5361,1.58438 1.0721,7.92191 v 5.80939 l -1.0721,5.28128 -1.6082,5.28127 -2.1442,3.696892 -2.6803,5.281271 -3.2163,4.753146 -2.1442,2.112502 -1.0721,1.584385 -6.4327,5.809397 -4.2885,2.640635 -5.3605,3.696895 -6.9687,3.168761 -3.2164,1.584384 -1.6081,0.528126 -2.1443,1.056251 -5.3605,2.11251 -5.3606,2.11251 -5.8966,1.584385 -4.8245,2.112502 -6.9687,2.640636 -3.7524,1.584384 -4.8245,2.11251 -5.3606,2.640636 -4.8245,2.640636 -2.6802,2.11251 -4.2885,3.696887 -3.7524,4.22502 -3.7524,4.753145 -2.6802,4.753139 -2.1443,5.281278 -2.1442,6.337523 -1.6082,6.3375225 -1.6081,6.33753 -1.6082,8.9781583 -0.5361,4.7531452 -0.536,7.921907 -1.0721,8.450041 -0.5361,10.562542 v 7.921907 l -0.536,9.506291 v 12.14692 7.921907 7.393781 5.809397 2.11251 4.22502 4.22502 5.809395 l 0.536,1.58438 -0.536,3.16877 0.536,1.58437 v 5.80941 l 0.5361,5.28127 0.536,5.8094 0.5361,7.39378 1.0721,7.39378 0.5361,4.22501 1.0721,6.86566 1.0721,6.33752 0.536,1.58439 1.6082,3.69688 1.6082,5.28128 2.6803,6.33752 3.7523,6.33753 1.6082,2.64063 1.0721,1.58439 2.6803,2.64063 3.7524,3.16876 3.2163,3.16877 3.7524,2.1125 5.8966,3.16877 7.5048,3.69689 4.2884,1.58438 5.3606,2.11251 5.8966,2.11251 2.1442,0.52813 2.1443,0.52813 6.4326,2.64063 4.8245,1.58438 6.9688,3.16877 6.9687,3.16876 5.3605,3.16876 6.4327,5.28127 5.8966,5.28127 4.2885,5.8094 3.7524,5.8094 3.2163,8.45004 1.0721,6.33752 v 5.28127 5.8094 l -2.1442,7.39378 -2.6803,5.28128 -3.2163,4.75314 -2.1443,3.16876 -3.2163,3.69689 -3.2163,2.64064 -3.2164,2.64064 -4.2884,2.64063 -4.2885,2.64064 -4.8245,2.11251 -4.2884,1.05625 -2.6803,1.05625 -4.2884,1.05626 -6.4327,1.05625 -6.4327,0.52813 h -6.4326 -5.3606 -3.2163 -3.2164 -8.5768"
         style="fill:none;stroke:#ff0000;stroke-width:0.75;stroke-opacity:1;stroke-miterlimit:4;stroke-dasharray:none" />
      <path
         inkscape:connector-curvature="0"
         id="line1-4-5"
         d="m 3166.8942,119.02965 v 172.98867 h 64.8708 v -172.98867 -154.779337 -4.552328 -9.673713 -9.104664 -3.983288 -9.104673 -14.795081 -5.690416 -14.79508 -15.93317 -22.76167 -18.20933 h -30.7283 -34.1425 -3.4142 -10.8118 v 5.69042 15.93316 23.89975 16.50221 11.380835 11.380836 3.983288 11.380833 6.828504 3.414248 6.828496 7.966585 3.414248 154.779337 h 14.226"
         style="fill:none;stroke:#ff0000;stroke-width:0.75;stroke-opacity:1;stroke-miterlimit:4;stroke-dasharray:none" />
      <path
         inkscape:connector-curvature="0"
         id="line2-7-9"
         d="m 2275.2706,-164.3531 h 26.1759 18.7784 17.6403 6.2594 17.6403 10.2428 5.1214 10.8118 10.8117 5.1214 262.3282 v 283.38276 h -261.7591 -8.5357 -18.2093 -18.7784 -7.9666 -17.6403 -30.7282 -10.8118 -16.5022 V 49.037495 -63.63275 -164.3531"
         style="fill:none;stroke:#ff0000;stroke-width:0.75;stroke-opacity:1;stroke-miterlimit:4;stroke-dasharray:none" />
      <path
         inkscape:connector-curvature="0"
         id="line3-6-27"
         d="m 1990.6033,521.64903 h 6.8285 12.5189 33.0044 19.3474 8.5357 19.9164 1.7072 18.2093 9.1047 1131.8239 v 17.07128 h -1131.8239 -9.1047 -18.7784 -1.7071 -20.4855 -9.1047 -19.3474 -34.1425 -12.5189 -3.9833 v -17.07128"
         style="fill:none;stroke:#ff0000;stroke-width:0.75;stroke-opacity:1;stroke-miterlimit:4;stroke-dasharray:none" />
      <path
         inkscape:connector-curvature="0"
         id="line4-6-1"
         d="m 2350.2376,459.22366 h 8.4751 36.1604 20.9052 9.6051 21.4703 2.26 19.7752 9.6051 772.3637 v 17.07398 h -772.3637 -10.1701 -19.7752 -2.26 -22.0353 -9.6051 -21.4702 -37.2904 -5.6501 v -17.07398"
         style="fill:none;stroke:#ff0000;stroke-width:0.75;stroke-opacity:1;stroke-miterlimit:4;stroke-dasharray:none" />
      <path
         inkscape:connector-curvature="0"
         id="line5-6-8"
         d="m 3250.8552,411.03464 h -37.5257 -22.7429 -10.8029 -23.88 -1.7057 -21.6057 -10.8029 -771.5519 v -22.762 h 771.5519 10.8029 22.1743 2.2743 24.4485 10.8029 23.3115 35.2514 v 22.762"
         style="fill:none;stroke:#ff0000;stroke-width:0.75;stroke-opacity:1;stroke-miterlimit:4;stroke-dasharray:none" />
      <path
         inkscape:connector-curvature="0"
         id="line6-6-8"
         d="m 2289.4439,161.54931 h 29.5902 25.0378 11.3808 26.1759 1.7072 23.8997 11.3809 111.5321 v 59.74936 h -111.5321 -11.9499 -25.0379 -2.2761 -27.314 -12.5189 -26.745 -23.3307 v -59.74936"
         style="fill:none;stroke:#ff0000;stroke-width:0.75;stroke-opacity:1;stroke-miterlimit:4;stroke-dasharray:none" />
      <path
         inkscape:connector-curvature="0"
         id="line7-1-5"
         d="M 2796.3015,79.196737 V 61.556445 33.104362 20.585445 -8.4356823 -11.28089 -37.456803 -50.544764 -164.3531 h 73.4064 v 113.808336 13.657001 28.4520807 2.8452081 30.7282532 13.657 30.159208 10.24275 h -73.4064"
         style="fill:none;stroke:#ff0000;stroke-width:0.75;stroke-opacity:1;stroke-miterlimit:4;stroke-dasharray:none" />
      <path
         inkscape:connector-curvature="0"
         id="line9-8-8"
         d="M 2999.8072,76.351529 V 46.761362 31.397238 -3.3143044 -6.1595141 -38.025843 -53.389972 -164.3531 h 17.0713 v 110.963128 15.364129 32.4353689 2.8452121 35.280583 15.933166 27.883042 h -17.0713"
         style="fill:none;stroke:#ff0000;stroke-width:0.75;stroke-opacity:1;stroke-miterlimit:4;stroke-dasharray:none" />
      <path
         inkscape:connector-curvature="0"
         id="line8-1-8"
         d="m 2246.9242,-164.35312 v 4.55233 31.29729 14.79509 32.435373 2.845208 29.590169 14.226041 96.737083 h -33.5734 v -96.737083 -14.795089 -30.159201 -2.845208 -33.573463 -14.79508 -33.57346 h 33.5734"
         style="fill:none;stroke:#ff0000;stroke-width:0.75;stroke-opacity:1;stroke-miterlimit:4;stroke-dasharray:none" />
      <path
         inkscape:connector-curvature="0"
         id="line8-8-8"
         d="m 2246.9242,118.81838 v 4.55233 31.29729 14.79509 32.43537 2.84521 29.59017 14.22604 96.73708 h -33.5734 v -96.73708 -14.79509 -30.1592 -2.84521 -33.57346 -14.79508 -33.57346 h 33.5734"
         style="fill:none;stroke:#ff0000;stroke-width:0.75;stroke-opacity:1;stroke-miterlimit:4;stroke-dasharray:none" />
      <path
         inkscape:connector-curvature="0"
         id="line8-3-6"
         d="m 2185.0044,118.81838 v 4.55233 31.29729 14.79509 32.43537 2.84521 29.59017 14.22604 96.73708 h -33.5734 v -96.73708 -14.79509 -30.1592 -2.84521 -33.57346 -14.79508 -33.57346 h 33.5734"
         style="fill:none;stroke:#ff0000;stroke-width:0.75;stroke-opacity:1;stroke-miterlimit:4;stroke-dasharray:none" />
      <path
         inkscape:connector-curvature="0"
         id="line8-7-3"
         d="m 2123.0845,118.81838 v 4.55233 31.29729 14.79509 32.43537 2.84521 29.59017 14.22604 96.73708 h -33.5734 v -96.73708 -14.79509 -30.1592 -2.84521 -33.57346 -14.79508 -33.57346 h 33.5734"
         style="fill:none;stroke:#ff0000;stroke-width:0.75;stroke-opacity:1;stroke-miterlimit:4;stroke-dasharray:none" />
      <path
         inkscape:connector-curvature="0"
         id="line8-0-0"
         d="m 2185.0044,-164.35312 v 4.55233 31.29729 14.79509 32.435373 2.845208 29.590169 14.226041 96.737083 h -33.5734 v -96.737083 -14.795089 -30.159201 -2.845208 -33.573463 -14.79508 -33.57346 h 33.5734"
         style="fill:none;stroke:#ff0000;stroke-width:0.75;stroke-opacity:1;stroke-miterlimit:4;stroke-dasharray:none" />
      <path
         inkscape:connector-curvature="0"
         id="line8-39-4"
         d="M 2089.5111,62.125465 V 57.573132 26.27584 11.480757 -20.954618 -23.799826 -53.389995 -67.616036 -164.35312 h 33.5734 v 96.737084 14.795089 30.159201 2.845208 33.573461 14.795084 33.573458 h -33.5734"
         style="fill:none;stroke:#ff0000;stroke-width:0.75;stroke-miterlimit:4;stroke-dasharray:none;stroke-opacity:1" />
      <path
         inkscape:connector-curvature="0"
         id="line9-7-2"
         d="m 1692.5668,521.6269 h 29.5902 15.3641 34.7115 2.8452 31.8664 15.3641 110.9631 v 17.07128 h -110.9631 -15.3641 -32.4354 -2.8452 -35.2806 -15.9332 -27.883 V 521.6269"
         style="fill:none;stroke:#ff0000;stroke-width:0.75;stroke-opacity:1;stroke-miterlimit:4;stroke-dasharray:none" />
      <path
         inkscape:connector-curvature="0"
         id="line10-4-95"
         d="M 1980.9085,179.12611 V 155.22636 138.72415 102.30549 98.891235 65.317778 49.384609 -30.281226 h 17.0712 v 79.665835 16.502209 33.573459 3.414253 36.9877 16.50221 22.76167 h -17.0712"
         style="fill:none;stroke:#ff0000;stroke-width:0.75;stroke-opacity:1;stroke-miterlimit:4;stroke-dasharray:none" />
      <path
         inkscape:connector-curvature="0"
         id="line6-7-6"
         d="m 2841.7194,221.29879 h -29.5902 -25.0378 -11.3808 -26.1759 -1.7072 -23.8997 -11.3809 -111.5321 v -59.74936 h 111.5321 11.9499 25.0379 2.2761 27.314 12.5189 26.745 23.3307 v 59.74936"
         style="fill:none;stroke:#ff0000;stroke-width:0.75;stroke-opacity:1;stroke-miterlimit:4;stroke-dasharray:none" />
      <path
         inkscape:connector-curvature="0"
         id="line7-8-5"
         d="M 2694.5487,79.196737 V 61.556445 33.104362 20.585445 -8.4356823 -11.28089 -37.456803 -50.544764 -164.3531 h 73.4064 v 113.808336 13.657001 28.4520807 2.8452081 30.7282532 13.657 30.159208 10.24275 h -73.4064"
         style="fill:none;stroke:#ff0000;stroke-width:0.75;stroke-opacity:1;stroke-miterlimit:4;stroke-dasharray:none" />
      <path
         inkscape:connector-curvature="0"
         id="line7-2-7"
         d="m 1692.5668,405.70079 h 17.6403 28.4521 12.5189 29.0211 2.8452 26.1759 13.088 113.8083 v 73.40641 h -113.8083 -13.657 -28.4521 -2.8452 -30.7282 -13.657 -30.1593 -10.2427 v -73.40641"
         style="fill:none;stroke:#ff0000;stroke-width:0.75;stroke-opacity:1;stroke-miterlimit:4;stroke-dasharray:none" />
      <path
         inkscape:connector-curvature="0"
         id="line6-4-8"
         d="m 2289.4439,263.81841 h 29.5902 25.0378 11.3808 26.1759 1.7072 23.8997 11.3809 111.5321 v 59.74936 h -111.5321 -11.9499 -25.0379 -2.2761 -27.314 -12.5189 -26.745 -23.3307 v -59.74936"
         style="fill:none;stroke:#ff0000;stroke-width:0.75;stroke-opacity:1;stroke-miterlimit:4;stroke-dasharray:none" />
      <path
         inkscape:connector-curvature="0"
         id="line7-0-51"
         d="M 2898.0543,79.196737 V 61.556445 33.104362 20.585445 -8.4356823 -11.28089 -37.456803 -50.544764 -164.3531 h 73.4064 v 113.808336 13.657001 28.4520807 2.8452081 30.7282532 13.657 30.159208 10.24275 h -73.4064"
         style="fill:none;stroke:#ff0000;stroke-width:0.75;stroke-opacity:1;stroke-miterlimit:4;stroke-dasharray:none" />
      <path
         inkscape:connector-curvature="0"
         id="rect6310-5"
         d="m 1664.2183,-192.03116 h 1615.7075 v 764.7469 H 1664.2183 Z"
         style="fill:none;fill-opacity:1;stroke:#ff0000;stroke-width:0.75;stroke-miterlimit:4;stroke-dasharray:none;stroke-opacity:1" />
      <path
         inkscape:connector-curvature="0"
         id="line1-8-0"
         d="m 3059.4509,119.02965 v 172.98867 h 64.8708 v -172.98867 -154.779337 -4.552328 -9.673713 -9.104664 -3.983288 -9.104673 -14.795081 -5.690416 -14.79508 -15.93317 -22.76167 -18.20933 h -30.7283 -34.1425 -3.4142 -10.8118 v 5.69042 15.93316 23.89975 16.50221 11.380835 11.380836 3.983288 11.380833 6.828504 3.414248 6.828496 7.966585 3.414248 154.779337 h 14.226"
         style="fill:none;stroke:#ff0000;stroke-width:0.75;stroke-opacity:1;stroke-miterlimit:4;stroke-dasharray:none" />
      <path
         inkscape:connector-curvature="0"
         id="line6-4-6-4"
         d="m 2841.7193,323.56789 h -29.5902 -25.0378 -11.3808 -26.1759 -1.7072 -23.8997 -11.3809 -111.5321 v -59.74936 h 111.5321 11.9499 25.0379 2.2761 27.314 12.5189 26.745 23.3307 v 59.74936"
         style="fill:none;stroke:#ff0000;stroke-width:0.75;stroke-opacity:1;stroke-miterlimit:4;stroke-dasharray:none" />
      <path
         inkscape:connector-curvature="0"
         id="line10-6-09"
         d="M 2026.3262,179.12611 V 155.22636 138.72415 102.30549 98.891235 65.317778 49.384609 -30.281226 h 17.0713 v 79.665835 16.502209 33.573459 3.414253 36.9877 16.50221 22.76167 h -17.0713"
         style="fill:none;stroke:#ff0000;stroke-width:0.75;stroke-opacity:1;stroke-miterlimit:4;stroke-dasharray:none" />
      <path
         inkscape:connector-curvature="0"
         id="rect4512-0"
         d="m 2022.9243,405.70082 v 10.83252 h 41.1152 v 47.66016 h 146.8711 v -47.66016 h 41.1152 v -10.83252 z"
         style="fill:none;fill-opacity:1;stroke:#ff0000;stroke-width:0.75;stroke-miterlimit:4;stroke-dasharray:none;stroke-opacity:1" />
      <path
         inkscape:connector-curvature="0"
         id="rect4517-8"
         d="m 2918.8627,143.81265 h 67.4111 v 197.80484 h -67.4111 z"
         style="fill:none;fill-opacity:1;stroke:#ff0000;stroke-width:0.75;stroke-miterlimit:4;stroke-dasharray:none;stroke-opacity:1" />
    </g>
  </g>
  <g
     inkscape:groupmode="layer"
     id="layer2"
     inkscape:label="Layer 2"
     style="display:inline"
     transform="translate(-6.4167871,-218.42104)" />
  <g
     inkscape:groupmode="layer"
     id="layer3"
     inkscape:label="Layer 3"
     style="display:inline"
     transform="translate(-6.4167871,-218.42104)" />
</svg>
